<svg width="26" height="21" viewBox="0 0 26 21" fill="none" xmlns="http://www.w3.org/2000/svg">
<path d="M25.8423 2.48573C24.8911 2.90814 23.8694 3.19239 22.797 3.3206C23.8922 2.66463 24.7321 1.62601 25.1276 0.387619C24.1039 0.994889 22.9689 1.43618 21.7603 1.67471C20.7933 0.644044 19.4157 0 17.8911 0C14.9631 0 12.5897 2.37441 12.5897 5.30143C12.5897 5.71688 12.6374 6.12239 12.7268 6.50902C8.32089 6.28837 4.41488 4.17734 1.79895 0.969047C1.34375 1.75224 1.08235 2.66264 1.08235 3.63567C1.08235 5.47437 2.01761 7.0974 3.43987 8.04756C2.57121 8.01974 1.75323 7.7812 1.03862 7.38464C1.03862 7.4075 1.03862 7.42837 1.03862 7.45123C1.03862 10.0204 2.8654 12.1633 5.29149 12.6493C4.84722 12.7706 4.37811 12.8352 3.89408 12.8352C3.55317 12.8352 3.22022 12.8014 2.8972 12.7407C3.57206 14.8468 5.53003 16.3804 7.84978 16.4231C6.03592 17.8454 3.74996 18.6932 1.26523 18.6932C0.837853 18.6932 0.415448 18.6683 0 18.6186C2.34659 20.1224 5.13247 21 8.12708 21C17.8792 21 23.2104 12.9216 23.2104 5.91566C23.2104 5.68607 23.2054 5.45748 23.1955 5.22987C24.2321 4.48147 25.1316 3.5482 25.8423 2.48573Z" fill="#818181"/>
</svg>
