<svg width="28" height="21" viewBox="0 0 28 21" fill="none" xmlns="http://www.w3.org/2000/svg">
<path d="M13.717 0.0164868C9.30011 0.0164868 3.56732 0 3.56732 0L3.5529 0.0164868C1.54122 0.338215 0 2.06683 0 4.16909V10.5V10.5021V16.8309V16.833C0.00196306 17.837 0.36178 18.8074 1.01484 19.57C1.66791 20.3326 2.57144 20.8374 3.5632 20.9938L3.56732 21C3.56732 21 9.30011 21 13.717 21C18.1338 21 23.8666 21 23.8666 21L23.8687 20.9979C24.8615 20.8419 25.7661 20.3367 26.4197 19.5732C27.0732 18.8097 27.4329 17.838 27.434 16.833V16.8309V10.5021V10.5V4.16909C27.4325 3.16472 27.0729 2.19379 26.4198 1.43077C25.7667 0.667737 24.8629 0.162624 23.8708 0.00618253L23.8666 0C23.8666 0 18.1338 0.0164868 13.717 0.0164868ZM10.5515 5.64465L18.9927 10.5L10.5515 15.3553V5.64465Z" fill="#818181"/>
</svg>
